IKResults
version=1
nRows=15
nColumns=38
inDegrees=yes

Units are S.I. units (second, meters, Newtons, ...)
If the header above contains a line with 'inDegrees', this indicates whether rotational values are in degrees (yes) or radians (no).

endheader
time	sternoclavicular_r2	sternoclavicular_r3	unrotscap_r3	unrotscap_r2	acromioclavicular_r2	acromioclavicular_r3	acromioclavicular_r1	unrothum_r1	unrothum_r3	unrothum_r2	elv_angle	shoulder_elv	shoulder1_r2	shoulder_rot	elbow_flexion	pro_sup	deviation	flexion	proximal_distal_r1	proximal_distal_r3	cmc_flexion	cmc_abduction	mp_flexion	ip_flexion	2mcp_flexion	2mcp_abduction	2pm_flexion	2md_flexion	APLpt_tx	APLpt_ty	APLpt_tz	FPLpt_tx	FPLpt_ty	FPLpt_tz	FPLpt2_tx	FPLpt2_ty	FPLpt2_tz
      0.00000000	     -5.94296087	      2.51715773	     -2.51715773	      5.94296087	     -1.20332869	      9.72487918	      4.37126626	     -4.37126626	     -9.72487918	      1.20332869	     15.03994865	     24.55763452	    -15.03994865	      2.32830614	     81.84509046	     52.05204790	      0.15102498	      0.18296998	     10.67382707	      5.24170390	      3.36700001	      5.93538609	    -27.65299999	    -34.18400000	     -2.12116706	      7.65299997	     26.93900001	     34.89800000	     -0.00021523	     -0.00008609	     -0.00043047	     -0.00027550	     -0.00082650	     -0.00046491	      0.00004241	     -0.00007788	     -0.00009345
      0.01000000	     -5.94477323	      2.51792536	     -2.51792536	      5.94477323	     -1.20369565	      9.72784486	      4.37259931	     -4.37259931	     -9.72784486	      1.20369565	     15.15136883	     24.56512357	    -15.15136883	      2.36120772	     81.79185815	     52.06324962	      0.15128999	      0.18231319	     10.69066548	      5.22288805	      3.36700001	      5.91420210	    -27.65299999	    -34.18400000	     -2.13582514	      7.65299997	     26.93900001	     34.89800000	     -0.00021437	     -0.00008575	     -0.00042873	     -0.00027439	     -0.00082317	     -0.00046303	      0.00004241	     -0.00007788	     -0.00009345
      0.02000000	     -5.94383240	      2.51752687	     -2.51752687	      5.94383240	     -1.20350515	      9.72630532	      4.37190730	     -4.37190730	     -9.72630532	      1.20350515	     15.14611784	     24.56123586	    -15.14611784	      2.37352966	     81.77907813	     52.11585028	      0.15075785	      0.17793492	     10.65682641	      5.09746011	      3.36700001	      5.70276233	    -27.65299999	    -34.18400000	     -1.78400580	      7.65299997	     26.93900001	     34.89800000	     -0.00020857	     -0.00008343	     -0.00041713	     -0.00026696	     -0.00080089	     -0.00045050	      0.00004241	     -0.00007788	     -0.00009345
      0.03000000	     -5.94063045	      2.51617068	     -2.51617068	      5.94063045	     -1.20285682	      9.72106575	      4.36955215	     -4.36955215	     -9.72106575	      1.20285682	     15.03232866	     24.54800470	    -15.03232866	      2.26408233	     81.80043144	     51.73347547	      0.15185562	      0.17758339	     10.72662018	      5.08738924	      3.36700001	      5.94240803	    -27.65299999	    -34.18400000	     -1.43558366	      7.65299997	     26.93900001	     34.89800000	     -0.00020810	     -0.00008324	     -0.00041620	     -0.00026637	     -0.00079911	     -0.00044950	      0.00004241	     -0.00007788	     -0.00009345
      0.04000000	     -5.93822423	      2.51515151	     -2.51515151	      5.93822423	     -1.20236961	      9.71712827	      4.36778228	     -4.36778228	     -9.71712827	      1.20236961	     15.03776322	     24.53806164	    -15.03776322	      2.30404718	     81.79612733	     51.73686416	      0.15183567	      0.17766787	     10.72533726	      5.08980957	      3.36700001	      5.94507831	    -27.65299999	    -34.18400000	     -1.43861323	      7.65299997	     26.93900001	     34.89800000	     -0.00020821	     -0.00008329	     -0.00041643	     -0.00026651	     -0.00079954	     -0.00044974	      0.00004241	     -0.00007788	     -0.00009345
      0.05000000	     -5.93900273	      2.51548125	     -2.51548125	      5.93900273	     -1.20252725	      9.71840220	      4.36835490	     -4.36835490	     -9.71840220	      1.20252725	     15.06035510	     24.54127861	    -15.06035510	      2.26924024	     81.79446786	     51.86155803	      0.15096108	      0.17950033	     10.66977105	      5.14230572	      3.36700001	      6.19182746	    -27.65299999	    -34.18400000	     -1.57234125	      7.65299997	     26.93900001	     34.89800000	     -0.00021064	     -0.00008425	     -0.00042127	     -0.00026961	     -0.00080884	     -0.00045497	      0.00004241	     -0.00007788	     -0.00009345
      0.06000000	     -5.93993371	      2.51587557	     -2.51587557	      5.93993371	     -1.20271575	      9.71992563	      4.36903967	     -4.36903967	     -9.71992563	      1.20271575	     15.05698759	     24.54512563	    -15.05698759	      2.25037534	     81.79557000	     51.85963074	      0.15100309	      0.17943489	     10.67242201	      5.14043098	      3.36700001	      6.19310045	    -27.65299999	    -34.18400000	     -1.57816828	      7.65299997	     26.93900001	     34.89800000	     -0.00021055	     -0.00008422	     -0.00042110	     -0.00026950	     -0.00080851	     -0.00045479	      0.00004241	     -0.00007788	     -0.00009345
      0.07000000	     -5.95036394	      2.52029332	     -2.52029332	      5.95036394	     -1.20482766	      9.73699332	      4.37671149	     -4.37671149	     -9.73699332	      1.20482766	     15.03590995	     24.58822562	    -15.03590995	      2.32697435	     81.77248279	     51.84181029	      0.14965903	      0.17717149	     10.58686224	      5.07558918	      3.36700001	      6.21775827	    -27.65299999	    -34.18400000	     -1.32987244	      7.65299997	     26.93900001	     34.89800000	     -0.00020756	     -0.00008302	     -0.00041512	     -0.00026567	     -0.00079702	     -0.00044833	      0.00004241	     -0.00007788	     -0.00009345
      0.08000000	     -5.94892823	      2.51968523	     -2.51968523	      5.94892823	     -1.20453696	      9.73464398	      4.37565547	     -4.37565547	     -9.73464398	      1.20453696	     15.02060399	     24.58229297	    -15.02060399	      2.32038825	     81.77532603	     51.82642442	      0.14871674	      0.17548820	     10.52677692	      5.02736667	      3.36700001	      6.14414473	    -27.65299999	    -34.18400000	     -1.22750270	      7.65299997	     26.93900001	     34.89800000	     -0.00020534	     -0.00008214	     -0.00041068	     -0.00026283	     -0.00078850	     -0.00044353	      0.00004241	     -0.00007788	     -0.00009345
      0.09000000	     -5.94189712	      2.51670718	     -2.51670718	      5.94189712	     -1.20311330	      9.72313848	      4.37048383	     -4.37048383	     -9.72313848	      1.20311330	     15.05720632	     24.55323884	    -15.05720632	      2.31038296	     81.76469559	     51.87678913	      0.14890081	      0.17457005	     10.53852543	      5.00106368	      3.36700001	      6.16580116	    -27.65299999	    -34.18400000	     -1.21663659	      7.65299997	     26.93900001	     34.89800000	     -0.00020413	     -0.00008165	     -0.00040826	     -0.00026129	     -0.00078386	     -0.00044092	      0.00004241	     -0.00007788	     -0.00009345
      0.10000000	     -5.94044166	      2.51609071	     -2.51609071	      5.94044166	     -1.20281860	      9.72075681	      4.36941329	     -4.36941329	     -9.72075681	      1.20281860	     15.08199679	     24.54722456	    -15.08199679	      2.23747076	     81.76616178	     51.71663624	      0.15091154	      0.17707608	     10.66663811	      5.07285596	      3.36700001	      6.44389334	    -27.65299999	    -34.18400000	     -1.34783583	      7.65299997	     26.93900001	     34.89800000	     -0.00020743	     -0.00008297	     -0.00041486	     -0.00026551	     -0.00079652	     -0.00044804	      0.00004241	     -0.00007788	     -0.00009345
      0.11000000	     -5.93472206	      2.51366816	     -2.51366816	      5.93472206	     -1.20166049	      9.71139743	      4.36520631	     -4.36520631	     -9.71139743	      1.20166049	     15.06237871	     24.52358989	    -15.06237871	      2.22061040	     81.77692239	     51.73904419	      0.15116493	      0.17731274	     10.68272079	      5.07963596	      3.36700001	      6.47972812	    -27.65299999	    -34.18400000	     -1.40241306	      7.65299997	     26.93900001	     34.89800000	     -0.00020774	     -0.00008310	     -0.00041549	     -0.00026591	     -0.00079774	     -0.00044873	      0.00004241	     -0.00007788	     -0.00009345
      0.12000000	     -5.94788808	      2.51924467	     -2.51924467	      5.94788808	     -1.20432635	      9.73294191	      4.37489041	     -4.37489041	     -9.73294191	      1.20432635	     15.06083909	     24.57799485	    -15.06083909	      2.30066174	     81.72301397	     51.91649177	      0.14893562	      0.17182613	     10.54074233	      4.92245599	      3.36700001	      6.04149137	    -27.65299999	    -34.18400000	     -1.29847100	      7.65299997	     26.93900001	     34.89800000	     -0.00020053	     -0.00008021	     -0.00040105	     -0.00025667	     -0.00077002	     -0.00043314	      0.00004241	     -0.00007788	     -0.00009345
      0.13000000	     -5.94212124	      2.51680210	     -2.51680210	      5.94212124	     -1.20315868	      9.72350523	      4.37064868	     -4.37064868	     -9.72350523	      1.20315868	     15.06423237	     24.55416497	    -15.06423237	      2.22709127	     81.76145660	     51.90651213	      0.14691536	      0.17802354	     10.41167822	      5.09999862	      3.36700001	      5.96876926	    -27.65299999	    -34.18400000	     -1.34900370	      7.65299997	     26.93900001	     34.89800000	     -0.00020868	     -0.00008347	     -0.00041736	     -0.00026711	     -0.00080134	     -0.00045075	      0.00004241	     -0.00007788	     -0.00009345
      0.14000000	     -5.94340205	      2.51734459	     -2.51734459	      5.94340205	     -1.20341802	      9.72560110	      4.37159076	     -4.37159076	     -9.72560110	      1.20341802	     15.03931217	     24.55945754	    -15.03931217	      2.25071405	     81.77538333	     51.98191986	      0.15007605	      0.17752766	     10.61345323	      5.08579282	      3.36700001	      6.03396280	    -27.65299999	    -34.18400000	     -1.40300596	      7.65299997	     26.93900001	     34.89800000	     -0.00020803	     -0.00008321	     -0.00041605	     -0.00026627	     -0.00079882	     -0.00044934	      0.00004241	     -0.00007788	     -0.00009345
